<svg data-v-423bf9ae="" xmlns="http://www.w3.org/2000/svg" viewBox="0 0 269 90" class="iconLeft"><!----><!----><!----><g data-v-423bf9ae="" id="62b69d75-f41a-4369-a501-54b66982eb3d" fill="#2e3034" transform="matrix(4.946414192184336,0,0,4.946414192184336,109.01072236394808,-6.1706552108594295)"><path d="M0.99 4.97L0.99 4.97L0.99 4.97Q0.99 5.25 1.19 5.45L1.19 5.45L1.19 5.45Q1.39 5.64 1.68 5.64L1.68 5.64L1.68 5.64Q1.97 5.64 2.17 5.45L2.17 5.45L2.17 5.45Q2.37 5.25 2.37 4.96L2.37 4.96L2.37 4.96Q2.37 4.68 2.17 4.48L2.17 4.48L2.17 4.48Q1.97 4.28 1.68 4.28L1.68 4.28L1.68 4.28Q1.39 4.28 1.19 4.48L1.19 4.48L1.19 4.48Q0.99 4.68 0.99 4.97ZM3.21 12.66L2.25 12.67L2.25 6.94L2.25 6.94Q2.09 7.04 1.91 7.08L1.91 7.08L1.91 7.08Q1.74 7.13 1.44 7.13L1.44 7.13L0.20 7.13L0.20 7.63L1.19 7.63L1.22 12.66L0.20 12.66L0.20 13.17L3.21 13.17L3.21 12.66ZM8.65 11.61L8.65 11.61L8.65 10.85L8.65 10.85Q8.65 10.57 8.58 10.34L8.58 10.34L8.58 10.34Q8.51 10.11 8.34 9.94L8.34 9.94L8.34 9.94Q8.18 9.77 7.89 9.67L7.89 9.67L7.89 9.67Q7.60 9.58 7.18 9.58L7.18 9.58L6.29 9.58L6.29 9.58Q5.94 9.58 5.72 9.53L5.72 9.53L5.72 9.53Q5.50 9.48 5.39 9.38L5.39 9.38L5.39 9.38Q5.28 9.28 5.24 9.16L5.24 9.16L5.24 9.16Q5.19 9.03 5.19 8.88L5.19 8.88L5.19 8.29L5.19 8.29Q5.19 7.91 5.41 7.69L5.41 7.69L5.41 7.69Q5.63 7.48 6.10 7.48L6.10 7.48L6.10 7.48Q6.94 7.48 7.36 7.69L7.36 7.69L7.36 7.69Q7.78 7.91 7.88 8.25L7.88 8.25L7.88 8.74L8.39 8.72L8.36 7.01L8.26 7.01L8.26 7.01Q8.26 7.17 8.19 7.20L8.19 7.20L8.19 7.20Q8.15 7.20 8.12 7.18L8.12 7.18L8.12 7.18Q7.76 7.11 7.18 7.04L7.18 7.04L7.18 7.04Q6.61 6.97 5.94 6.97L5.94 6.97L5.94 6.97Q5.26 6.97 4.91 7.31L4.91 7.31L4.91 7.31Q4.55 7.66 4.55 8.37L4.55 8.37L4.55 9.24L4.55 9.24Q4.55 9.95 4.93 10.23L4.93 10.23L4.93 10.23Q5.31 10.51 5.91 10.51L5.91 10.51L6.92 10.51L6.92 10.51Q7.52 10.51 7.71 10.75L7.71 10.75L7.71 10.75Q7.90 10.99 7.90 11.37L7.90 11.37L7.90 11.76L7.90 11.76Q7.90 12.75 6.96 12.75L6.96 12.75L6.96 12.75Q6.55 12.75 6.20 12.70L6.20 12.70L6.20 12.70Q5.85 12.64 5.59 12.52L5.59 12.52L5.59 12.52Q5.32 12.39 5.15 12.20L5.15 12.20L5.15 12.20Q4.98 12.01 4.94 11.76L4.94 11.76L4.94 11.27L4.41 11.28L4.42 13.22L4.52 13.22L4.52 13.22Q4.52 13.02 4.59 12.99L4.59 12.99L4.65 12.98L4.65 12.98Q4.69 12.98 4.72 13.01L4.72 13.01L4.72 13.01Q5.21 13.13 5.75 13.20L5.75 13.20L5.75 13.20Q6.30 13.27 6.93 13.27L6.93 13.27L6.93 13.27Q7.77 13.27 8.21 12.84L8.21 12.84L8.21 12.84Q8.65 12.42 8.65 11.61ZM11.38 12.14L11.38 12.14L11.38 7.63L12.81 7.63L12.81 7.13L11.38 7.13L11.38 5.08L10.84 5.08L10.84 5.08Q10.77 5.84 10.54 6.35L10.54 6.35L10.54 6.35Q10.30 6.86 9.80 7.13L9.80 7.13L9.32 7.13L9.32 7.63L10.33 7.63L10.33 12.15L10.33 12.15Q10.33 13.26 11.65 13.26L11.65 13.26L11.65 13.26Q12.24 13.26 12.51 13.09L12.51 13.09L12.51 13.09Q12.78 12.92 12.92 12.73L12.92 12.73L12.92 12.43L12.82 12.31L12.82 12.31Q12.80 12.43 12.57 12.59L12.57 12.59L12.57 12.59Q12.33 12.75 12.01 12.75L12.01 12.75L12.01 12.75Q11.66 12.75 11.52 12.62L11.52 12.62L11.52 12.62Q11.38 12.49 11.38 12.14ZM17.81 10.23L17.81 12.15L17.81 12.15Q17.57 12.38 17.14 12.53L17.14 12.53L17.14 12.53Q16.72 12.68 16.00 12.68L16.00 12.68L16.00 12.68Q15.51 12.68 15.36 12.47L15.36 12.47L15.36 12.47Q15.20 12.26 15.20 11.79L15.20 11.79L15.20 11.28L15.20 11.28Q15.20 10.74 15.47 10.50L15.47 10.50L15.47 10.50Q15.74 10.26 16.45 10.25L16.45 10.25L17.81 10.23ZM17.82 12.82L17.82 12.82L17.82 12.82Q17.86 12.98 18.02 13.12L18.02 13.12L18.02 13.12Q18.17 13.26 18.44 13.26L18.44 13.26L18.44 13.26Q18.89 13.26 19.26 13.15L19.26 13.15L19.26 13.15Q19.63 13.05 19.92 12.88L19.92 12.88L19.85 12.42L19.85 12.42Q19.73 12.49 19.49 12.60L19.49 12.60L19.49 12.60Q19.25 12.71 19.07 12.71L19.07 12.71L19.07 12.71Q18.93 12.71 18.89 12.59L18.89 12.59L18.89 12.59Q18.86 12.47 18.86 12.19L18.86 12.19L18.86 8.39L18.86 8.39Q18.86 7.67 18.38 7.32L18.38 7.32L18.38 7.32Q17.91 6.97 17.02 6.97L17.02 6.97L16.07 6.97L16.07 6.97Q15.27 6.97 14.86 7.29L14.86 7.29L14.86 7.29Q14.45 7.60 14.45 8.19L14.45 8.19L14.45 8.64L14.45 8.64Q14.55 8.99 14.98 9.02L14.98 9.02L14.98 9.02Q15.36 9.02 15.51 8.72L15.51 8.72L15.51 8.72Q15.51 8.47 15.40 8.33L15.40 8.33L15.40 8.33Q15.29 8.19 15.27 8.04L15.27 8.04L15.27 8.04Q15.27 7.74 15.53 7.61L15.53 7.61L15.53 7.61Q15.78 7.48 16.21 7.48L16.21 7.48L16.91 7.48L16.91 7.48Q17.36 7.48 17.58 7.61L17.58 7.61L17.58 7.61Q17.81 7.74 17.81 8.18L17.81 8.18L17.81 9.77L16.32 9.79L16.32 9.79Q15.23 9.80 14.67 10.15L14.67 10.15L14.67 10.15Q14.11 10.50 14.11 11.17L14.11 11.17L14.11 12.04L14.11 12.04Q14.11 12.63 14.43 12.94L14.43 12.94L14.43 12.94Q14.74 13.26 15.41 13.26L15.41 13.26L15.41 13.26Q16.04 13.26 16.67 13.17L16.67 13.17L16.67 13.17Q17.29 13.09 17.82 12.82ZM22.68 7.48L22.68 7.48L23.95 7.48L23.95 7.48Q24.32 7.48 24.41 7.87L24.41 7.87L24.41 7.87Q24.50 8.27 24.50 9.09L24.50 9.09L24.50 9.09Q24.50 9.53 24.49 9.83L24.49 9.83L24.49 9.83Q24.47 10.14 24.39 10.32L24.39 10.32L24.39 10.32Q24.32 10.51 24.18 10.60L24.18 10.60L24.18 10.60Q24.04 10.68 23.79 10.68L23.79 10.68L22.65 10.68L22.65 10.68Q22.40 10.68 22.25 10.60L22.25 10.60L22.25 10.60Q22.11 10.51 22.04 10.32L22.04 10.32L22.04 10.32Q21.97 10.14 21.95 9.83L21.95 9.83L21.95 9.83Q21.92 9.53 21.92 9.09L21.92 9.09L21.92 9.09Q21.92 8.22 22.05 7.85L22.05 7.85L22.05 7.85Q22.18 7.48 22.68 7.48ZM20.87 9.11L20.87 9.11L20.87 9.11Q20.87 10.15 21.29 10.67L21.29 10.67L21.29 10.67Q21.46 10.85 21.70 11.00L21.70 11.00L21.70 11.00Q21.50 11.16 21.45 11.30L21.45 11.30L21.45 11.30Q21.31 11.62 21.31 12.18L21.31 12.18L21.31 12.18Q21.31 12.77 21.42 12.92L21.42 12.92L21.42 12.92Q21.06 13.10 20.90 13.33L20.90 13.33L20.90 13.33Q20.57 13.82 20.57 14.64L20.57 14.64L20.57 14.64Q20.57 15.57 21.01 15.99L21.01 15.99L21.01 15.99Q21.46 16.41 22.44 16.41L22.44 16.41L23.81 16.41L23.81 16.41Q24.78 16.41 25.33 15.82L25.33 15.82L25.33 15.82Q25.89 15.23 25.89 14.04L25.89 14.04L25.89 14.04Q25.89 13.08 25.60 12.68L25.60 12.68L25.60 12.68Q25.31 12.29 24.68 12.29L24.68 12.29L23.00 12.29L23.00 12.29Q22.53 12.29 22.20 12.22L22.20 12.22L22.20 12.22Q21.87 12.15 21.87 12.00L21.87 12.00L21.87 12.00Q21.87 11.55 22.05 11.28L22.05 11.28L22.05 11.28Q22.08 11.24 22.16 11.16L22.16 11.16L22.16 11.16Q22.23 11.17 22.34 11.18L22.34 11.18L22.34 11.18Q22.44 11.19 22.58 11.19L22.58 11.19L23.86 11.19L23.86 11.19Q24.71 11.19 25.14 10.64L25.14 10.64L25.14 10.64Q25.56 10.09 25.56 9.07L25.56 9.07L25.56 9.07Q25.56 8.19 25.23 7.57L25.23 7.57L25.23 7.57Q25.41 7.49 25.58 7.49L25.58 7.49L25.58 7.49Q25.72 7.49 25.80 7.71L25.80 7.71L25.80 7.71Q25.89 7.92 26.26 7.92L26.26 7.92L26.26 7.92Q26.36 7.92 26.43 7.85L26.43 7.85L26.43 7.85Q26.50 7.78 26.50 7.67L26.50 7.67L26.50 7.67Q26.50 7.32 26.39 7.14L26.39 7.14L26.39 7.14Q26.28 6.96 26.17 6.96L26.17 6.96L26.17 6.96Q25.84 6.96 25.51 7.06L25.51 7.06L25.51 7.06Q25.38 7.08 25.26 7.13L25.26 7.13L25.26 7.13Q25.13 7.18 24.99 7.25L24.99 7.25L24.99 7.25Q24.75 6.97 24.42 6.97L24.42 6.97L22.58 6.97L22.58 6.97Q21.70 6.97 21.29 7.50L21.29 7.50L21.29 7.50Q20.87 8.02 20.87 9.11ZM22.13 13.23L22.13 13.23L24.47 13.23L24.47 13.23Q24.98 13.23 25.13 13.48L25.13 13.48L25.13 13.48Q25.28 13.73 25.28 14.27L25.28 14.27L25.28 14.27Q25.28 15.13 24.82 15.52L24.82 15.52L24.82 15.52Q24.35 15.90 23.66 15.90L23.66 15.90L22.54 15.90L22.54 15.90Q21.87 15.90 21.62 15.53L21.62 15.53L21.62 15.53Q21.36 15.15 21.36 14.55L21.36 14.55L21.36 14.55Q21.36 14.06 21.52 13.68L21.52 13.68L21.52 13.68Q21.66 13.37 22.13 13.23ZM32.26 11.65L32.26 11.33L31.71 11.33L31.71 11.56L31.71 11.56Q31.51 12.75 30.37 12.75L30.37 12.75L29.47 12.75L29.47 12.75Q28.52 12.75 28.52 11.76L28.52 11.76L28.52 10.02L32.06 10.02L32.06 10.02Q32.14 10.02 32.17 9.65L32.17 9.65L32.17 9.65Q32.19 9.45 32.20 9.23L32.20 9.23L32.20 9.23Q32.21 9.00 32.20 8.72L32.20 8.72L32.20 8.72Q32.19 8.34 32.03 8.03L32.03 8.03L32.03 8.03Q31.88 7.71 31.62 7.48L31.62 7.48L31.62 7.48Q31.36 7.24 31.00 7.10L31.00 7.10L31.00 7.10Q30.65 6.97 30.23 6.97L30.23 6.97L29.22 6.97L29.22 6.97Q28.83 6.97 28.49 7.14L28.49 7.14L28.49 7.14Q28.15 7.31 27.92 7.60L27.92 7.60L27.92 7.60Q27.68 7.90 27.54 8.30L27.54 8.30L27.54 8.30Q27.40 8.71 27.40 9.17L27.40 9.17L27.40 11.14L27.40 11.14Q27.40 12.12 27.89 12.69L27.89 12.69L27.89 12.69Q28.39 13.26 29.29 13.26L29.29 13.26L30.46 13.26L30.46 13.26Q30.80 13.26 31.09 13.18L31.09 13.18L31.09 13.18Q31.39 13.10 31.63 12.92L31.63 12.92L31.63 12.92Q31.86 12.74 32.02 12.42L32.02 12.42L32.02 12.42Q32.19 12.11 32.26 11.65L32.26 11.65ZM31.05 9.52L28.52 9.52L28.52 8.55L28.52 8.55Q28.52 7.48 29.44 7.48L29.44 7.48L30.17 7.48L30.17 7.48Q30.65 7.48 30.87 7.71L30.87 7.71L30.87 7.71Q31.09 7.95 31.08 8.50L31.08 8.50L31.05 9.52Z"></path></g><!----><g data-v-423bf9ae="" id="72ec22e5-5e92-4d36-9636-95508e8dd8dd" transform="matrix(2.8125,0,0,2.8125,0,0)" stroke="none" fill="#488eff"><path d="M16 1c8.271 0 15 6.729 15 15s-6.729 15-15 15S1 24.271 1 16 7.729 1 16 1m0-1C7.163 0 0 7.163 0 16s7.163 16 16 16 16-7.163 16-16S24.837 0 16 0z"></path><path d="M16 7.045L24.955 16 16 24.955 7.045 16 16 7.045m0-1.414L5.631 16 16 26.369 26.369 16 16 5.631z"></path><path d="M16 12.538L19.462 16 16 19.462 12.538 16 16 12.538m0-1.414L11.124 16 16 20.876 20.876 16 16 11.124z"></path></g><!----></svg>